# AST/ASF file generated using VICON BodyLanguage
# -----------------------------------------------
:version 1.10
:name VICON
:units
  mass 1.0
  length 0.45
  angle deg
:documentation
   .ast/.asf automatically generated from VICON data using
   VICON BodyBuilder and BodyLanguage model FoxedUp or BRILLIANT.MOD
:root
   order TX TY TZ RX RY RZ
   axis XYZ
   position 0 0 0  
   orientation 0 0 0 
:bonedata
  begin
     id 1 
     name lhipjoint
     direction 0.589753 -0.68606 0.426044 
     length 2.54082 
     axis 0 0 0  XYZ
  end
  begin
     id 2 
     name lfemur
     direction 0.34202 -0.939693 0  
     length 7.04539  
     axis 0 0 20  XYZ
    dof rx ry rz
    limits (-160.0 20.0)
           (-70.0 70.0)
           (-60.0 70.0)
  end
  begin
     id 3 
     name ltibia
     direction 0.34202 -0.939693 0   
     length 7.83772   
     axis 0 0 20   XYZ
    dof rx
    limits (-10.0 170.0)
  end
  begin
     id 4 
     name lfoot
     direction 0.0596604 -0.163915 0.984669   
     length 2.39542   
     axis -90 7.62852e-016 20   XYZ
    dof rx rz
    limits (-45.0 90.0)
           (-70.0 20.0)
  end
  begin
     id 5 
     name ltoes
     direction 1.53514e-011 -4.21954e-011 1   
     length 1.2047   
     axis -90 7.62852e-016 20   XYZ
    dof rx
    limits (-90.0 20.0)
  end
  begin
     id 6 
     name rhipjoint
     direction -0.580585 -0.69168 0.429534   
     length 2.52018  
     axis 0 0 0  XYZ 
  end
  begin
     id 7 
     name rfemur
     direction -0.34202 -0.939693 0   
     length 7.0101   
     axis 0 0 -20   XYZ
    dof rx ry rz
    limits (-160.0 20.0)
           (-70.0 70.0)
           (-70.0 60.0)
  end
  begin
     id 8 
     name rtibia
     direction -0.34202 -0.939693 0   
     length 7.70628   
     axis 0 0 -20   XYZ
    dof rx
    limits (-10.0 170.0)
 end
 begin
     id 9 
     name rfoot
     direction -0.0696237 -0.19129 0.979061   
     length 2.52466  
     axis -90 -7.62852e-016 -20   XYZ
    dof rx rz
    limits (-45.0 90.0)
           (-20.0 70.0)
  end
  begin
     id 10 
     name rtoes
     direction -1.53519e-011 -4.21793e-011 1   
     length 1.266   
     axis -90 -7.62852e-016 -20   XYZ
    dof rx
    limits (-90.0 20.0)
  end
  begin
     id 11 
     name lowerback
     direction 0.00381965 0.995707 -0.0924856   
     length 2.20825   
     axis 0 0 0   XYZ
    dof rx ry rz
    limits (-20.0 45.0)
           (-30.0 30.0)
           (-30.0 30.0)
  end
  begin
     id 12 
     name upperback
     direction -0.0139043 0.999634 -0.0231929   
     length 2.21517   
     axis 0 0 0   XYZ
    dof rx ry rz
    limits (-20.0 45.0)
           (-30.0 30.0)
           (-30.0 30.0)
  end
  begin
     id 13 
     name thorax
     direction -0.0143933 0.999691 0.0202892   
     length 2.22911   
     axis 0 0 0   XYZ
    dof rx ry rz
    limits (-20.0 45.0)
           (-30.0 30.0)
           (-30.0 30.0)
  end
  begin
     id 14 
     name lowerneck
     direction -0.0251153 0.981819 0.188153   
     length 1.61782   
     axis 0 0 0   XYZ
    dof rx ry rz
    limits (-20.0 45.0)
           (-30.0 30.0)
           (-30.0 30.0)
  end
  begin
     id 15 
     name upperneck
     direction 0.0563891 0.969357 -0.239095   
     length 1.64526   
     axis 0 0 0   XYZ
    dof rx ry rz
    limits (-20.0 45.0)
           (-30.0 30.0)
           (-30.0 30.0)
  end
  begin
     id 16
     name head
     direction 0.0208328 0.99459 -0.101773  
     length 1.67436  
     axis 0 0 0   XYZ
    dof rx ry rz
    limits (-20.0 45.0)
           (-30.0 30.0)
           (-30.0 30.0)
  end
  begin
     id 17 
     name lclavicle
     direction 0.917689 0.397224 0.00772059  
     length 3.31102  
     axis 0 0 0   XYZ
    dof ry rz
    limits (-20.0 10.0)
           (0.0 20.0)
  end
  begin
     id 18 
     name lhumerus
     direction 1 -4.4896e-011 2.32308e-027   
     length 5.25537   
     axis 180 -30 -90   XYZ
    dof rx ry rz
    limits (-60.0 90.0)
           (-90.0 90.0)
           (-90.0 90.0)
  end
  begin
     id 19
     name lradius
     direction 1 -4.49005e-011 -2.04271e-027   
     length 3.38855   
     axis 180 -30 -90   XYZ
    dof rx
    limits (-10.0 170.0)
  end
  begin
     id 20
     name lwrist
     direction 1 -4.48892e-011 2.56952e-028   
     length 1.69428   
     axis -5.12785e-016 90 90   XYZ
    dof ry
    limits (-180.0 0.0)
 end
  begin
     id 21 
     name lhand
     direction 1 -4.48966e-011 5.13905e-028   
     length 0.614516   
     axis -3.27915e-016 90 90   XYZ
    dof rx rz
    limits (-90.0 90.0)
           (-45.0 45.0)
  end
  begin
     id 22 
     name lfingers
     direction 1 -4.48979e-011 1.02781e-027   
     length 0.495439   
     axis -6.5583e-016 90 90   XYZ
    dof rx
    limits (0.0 90.0)
  end
  begin
     id 23
     name lthumb
     direction 0.707107 -6.35001e-011 0.707107   
     length 0.711354   
     axis -90 45 2.85299e-015   XYZ
    dof rx rz
    limits (-45.0 45.0)
           (-45.0 45.0)
  end
  begin
     id 24 
     name rclavicle
     direction -0.938556 0.342765 -0.0403177   
     length 3.27019  
     axis 0 0 0   XYZ 
    dof ry rz
    limits (-10.0 20.0)
           (-20.0 0.0)
  end
  begin
     id 25 
     name rhumerus
     direction -1 -4.48966e-011 2.52291e-027  
     length 5.38183   
     axis 180 30 90   XYZ
    dof rx ry rz
    limits (-90.0 60.0)
           (-90.0 90.0)
           (-90.0 90.0)
  end
  begin
     id 26 
     name rradius
     direction -1 -4.4896e-011 1.5797e-027   
     length 3.16988   
     axis 180 30 90   XYZ
    dof rx
    limits (-10.0 170.0)
  end
  begin
     id 27 
     name rwrist
     direction -1 -4.48947e-011 2.56952e-028   
     length 1.58494   
     axis -5.12785e-016 -90 -90   XYZ
    dof ry
    limits (-180.0 0.0)
  end
  begin
     id 28
     name rhand
     direction -1 -4.49098e-011 5.13905e-028   
     length 0.637679   
     axis -3.27915e-016 -90 -90   XYZ
    dof rx rz
    limits (-90.0 90.0)
           (-45.0 45.0)
  end
  begin
     id 29
     name rfingers
     direction -1 -4.49026e-011 1.02781e-027   
     length 0.514113   
     axis -6.5583e-016 -90 -90   XYZ
    dof rx
    limits (0.0 90.0)
  end
  begin
     id 30
     name rthumb
     direction -0.707107 -6.3491e-011 0.707107   
     length 0.738167   
     axis -90 -45 -2.85299e-015   XYZ
    dof rx rz
    limits (-45.0 45.0)
           (-45.0 45.0)
  end
:hierarchy
  begin
    root lhipjoint rhipjoint lowerback
    lhipjoint lfemur
    lfemur ltibia
    ltibia lfoot
    lfoot ltoes
    rhipjoint rfemur
    rfemur rtibia
    rtibia rfoot
    rfoot rtoes
    lowerback upperback
    upperback thorax
    thorax lowerneck lclavicle rclavicle
    lowerneck upperneck
    upperneck head
    lclavicle lhumerus
    lhumerus lradius
    lradius lwrist
    lwrist lhand lthumb
    lhand lfingers
    rclavicle rhumerus
    rhumerus rradius
    rradius rwrist
    rwrist rhand rthumb
    rhand rfingers
  end

#!OML:ASF H:\Swim\Project 1\Capture day 1\Session 1\swimmer.ASF
:FULLY-SPECIFIED
:DEGREES
1069
root 5.81878 11.5478 20.5303 75.7128 -3.53844 -6.07583
lowerback 2.29796 0.985823 1.28012
upperback -4.02423 1.22519 -3.47325
thorax -5.36048 0.480941 -4.42133
lowerneck -24.7688 -4.13995 -5.75216
upperneck 34.5458 -6.72125 8.02137
head 17.3856 -2.29202 3.16256
rclavicle -1.59028e-015 2.06736e-014
rhumerus 289.927 41.6313 253.71
rradius 53.7464
rwrist 1.69337
rhand -60.5301 254.827
rfingers 7.12502
rthumb -32.6564 -281.899
lclavicle -1.59028e-015 2.06736e-014
lhumerus -67.2761 -16.4388 81.6816
lradius 65.6258
lwrist -39.408
lhand -59.6082 -109.71
lfingers 7.12502
lthumb -31.7788 -136.96
rfemur -17.8251 3.33547 22.4494
rtibia 38.9516
rfoot -4.84577 -5.333
rtoes -9.25236
lfemur -10.6691 -2.81525 -23.0503
ltibia 32.6816
lfoot -1.10227 4.78704
ltoes -4.96347
1070
root 5.81438 11.5531 20.5579 75.8411 -3.45896 -5.92564
lowerback 2.04949 0.973636 1.27696
upperback -4.10084 1.20862 -3.46848
thorax -5.30038 0.473262 -4.4085
lowerneck -24.7462 -4.16578 -5.77884
upperneck 34.6531 -6.72856 7.95386
head 17.435 -2.30744 3.13963
rclavicle 3.18055e-015 2.18663e-014
rhumerus 289.985 41.529 253.553
rradius 53.3085
rwrist 1.65268
rhand -60.5078 254.509
rfingers 7.12502
rthumb -32.6352 -281.585
lclavicle 3.18055e-015 2.18663e-014
lhumerus -67.0088 -16.3001 81.6681
lradius 65.1491
lwrist -39.6849
lhand -59.4958 -109.863
lfingers 7.12502
lthumb -31.6717 -137.134
rfemur -17.9295 3.52014 22.4357
rtibia 38.847
rfoot -5.11252 -5.47292
rtoes -9.26697
lfemur -10.7427 -3.08743 -23.0488
ltibia 32.6292
lfoot -1.22571 5.05927
ltoes -4.88356
1071
root 5.80967 11.5589 20.5865 75.9775 -3.38955 -5.76252
lowerback 1.79464 0.957713 1.26228
upperback -4.17446 1.18655 -3.46306
thorax -5.23419 0.463444 -4.38803
lowerneck -24.7471 -4.19069 -5.80159
upperneck 34.7746 -6.73607 7.88547
head 17.4978 -2.32196 3.11606
rclavicle -4.77083e-015 -1.27222e-014
rhumerus 290.078 41.414 253.426
rradius 52.8603
rwrist 1.62493
rhand -60.4798 254.157
rfingers 7.12502
rthumb -32.6085 -281.239
lclavicle -4.77083e-015 -1.27222e-014
lhumerus -66.7214 -16.1572 81.6523
lradius 64.6844
lwrist -39.9574
lhand -59.3932 -110.046
lfingers 7.12502
lthumb -31.5739 -137.336
rfemur -18.0419 3.71805 22.4075
rtibia 38.7444
rfoot -5.38859 -5.63036
rtoes -9.25347
lfemur -10.8284 -3.37824 -23.0585
ltibia 32.5798
lfoot -1.365 5.35656
ltoes -4.76673
1072
root 5.80482 11.5654 20.6159 76.1303 -3.32279 -5.58689
lowerback 1.52905 0.937889 1.24769
upperback -4.24848 1.15925 -3.45863
thorax -5.16273 0.45103 -4.36827
lowerneck -24.7698 -4.21414 -5.8216
upperneck 34.9038 -6.74615 7.82641
head 17.5712 -2.33536 3.09597
rclavicle -2.78299e-014 8.34896e-015
rhumerus 290.197 41.2746 253.331
rradius 52.4155
rwrist 1.61889
rhand -60.4507 253.861
rfingers 7.12502
rthumb -32.5808 -280.949
lclavicle -2.78299e-014 8.34896e-015
lhumerus -66.4202 -16.0032 81.6235
lradius 64.2399
lwrist -40.2323
lhand -59.3183 -110.211
lfingers 7.12502
lthumb -31.5027 -137.516
rfemur -18.1691 3.92772 22.3709
rtibia 38.6431
rfoot -5.67535 -5.80202
rtoes -9.23533
lfemur -10.9359 -3.68363 -23.071
ltibia 32.5349
lfoot -1.52507 5.67595
ltoes -4.64836
1073
root 5.79991 11.5725 20.6462 76.3018 -3.24915 -5.40166
lowerback 1.25512 0.916152 1.24587
upperback -4.32418 1.12984 -3.45595
thorax -5.08827 0.437001 -4.35754
lowerneck -24.8041 -4.23765 -5.83826
upperneck 35.0237 -6.76278 7.78248
head 17.6445 -2.34858 3.0803
rclavicle -2.3059e-014 -1.53064e-014
rhumerus 290.335 41.1012 253.269
rradius 51.9909
rwrist 1.63895
rhand -60.425 253.691
rfingers 7.12502
rthumb -32.5563 -280.784
lclavicle -2.3059e-014 -1.53064e-014
lhumerus -66.1238 -15.8488 81.5821
lradius 63.8298
lwrist -40.5045
lhand -59.2762 -110.296
lfingers 7.12502
lthumb -31.4625 -137.609
rfemur -18.3131 4.15131 22.3363
rtibia 38.5428
rfoot -5.97388 -5.993
rtoes -9.23692
lfemur -11.068 -3.9989 -23.0744
ltibia 32.495
lfoot -1.69757 6.01208
ltoes -4.49406
